inDegrees=no
num_controls=7
num_derivatives=13
num_iterations=143
num_multipliers=7
num_parameters=0
num_slacks=7
num_states=26
objective=5.018067
objective_accelerations=0.448437
objective_balance=0.044331
objective_effort=0.245979
objective_height=4.215356
objective_ligament=0.063965
solver_duration=1595.526261
status=Solve_Succeeded
success=true
DataType=double
version=3
OpenSimVersion=4.4-2022-07-23-0e9fedc
endheader
time	/jointset/ground_pelvis/pelvis_tilt/value	/jointset/ground_pelvis/pelvis_tx/value	/jointset/ground_pelvis/pelvis_ty/value	/jointset/hip_l/hip_flexion_l/value	/jointset/hip_l/hip_adduction_l/value	/jointset/hip_l/hip_rotation_l/value	/jointset/back/lumbar_extension/value	/jointset/patellofemoral_l/patellar_flexion_l/value	/jointset/knee_l/knee_flexion_l/value	/jointset/knee_l/knee_adduction_l/value	/jointset/knee_l/knee_rotation_l/value	/jointset/ankle_l/ankle_angle_l/value	/jointset/subtalar_l/subtalar_angle_l/value	/jointset/ground_pelvis/pelvis_tilt/speed	/jointset/ground_pelvis/pelvis_tx/speed	/jointset/ground_pelvis/pelvis_ty/speed	/jointset/hip_l/hip_flexion_l/speed	/jointset/hip_l/hip_adduction_l/speed	/jointset/hip_l/hip_rotation_l/speed	/jointset/back/lumbar_extension/speed	/jointset/patellofemoral_l/patellar_flexion_l/speed	/jointset/knee_l/knee_flexion_l/speed	/jointset/knee_l/knee_adduction_l/speed	/jointset/knee_l/knee_rotation_l/speed	/jointset/ankle_l/ankle_angle_l/speed	/jointset/subtalar_l/subtalar_angle_l/speed	/forceset/tau_hip_flexion_l	/forceset/tau_hip_adduction_l	/forceset/tau_hip_rotation_l	/forceset/tau_knee_flexion_l	/forceset/tau_ankle_angle_l	/forceset/tau_subtalar_angle_l	/forceset/tau_lumbar_extension	lambda_cid13_p0	lambda_cid13_p1	lambda_cid13_p2	lambda_cid13_p3	lambda_cid13_p4	lambda_cid13_p5	lambda_cid14_p0	/jointset/ground_pelvis/pelvis_tilt/accel	/jointset/ground_pelvis/pelvis_tx/accel	/jointset/ground_pelvis/pelvis_ty/accel	/jointset/hip_l/hip_flexion_l/accel	/jointset/hip_l/hip_adduction_l/accel	/jointset/hip_l/hip_rotation_l/accel	/jointset/back/lumbar_extension/accel	/jointset/patellofemoral_l/patellar_flexion_l/accel	/jointset/knee_l/knee_flexion_l/accel	/jointset/knee_l/knee_adduction_l/accel	/jointset/knee_l/knee_rotation_l/accel	/jointset/ankle_l/ankle_angle_l/accel	/jointset/subtalar_l/subtalar_angle_l/accel	gamma_cid13_p0	gamma_cid13_p1	gamma_cid13_p2	gamma_cid13_p3	gamma_cid13_p4	gamma_cid13_p5	gamma_cid14_p0
0.5	-0.3608833647008374	-0.05051719752458615	0.7938786728089668	0.986149781941106	-0.4249573573576615	-0.3139159365770517	-0.2523200097518591	0.5821883363596446	0.5821883363597122	-0.1729696284918625	-0.1711794490138563	-0.0145136045361824	-0.0814807535732191	-0.8481979298179061	-0.2749979022863447	-0.3781814975718616	2.161438989737503	-0.2176163977556592	0.6004567483954566	-0.1288359875607772	1.381820662757789	1.38182066275805	-0.001532675219323917	-0.02792101771763075	0.1556157114900339	-0.1627366615769194	-0.1803453392327758	0.01600758177757641	-0.006540652592623706	-0.169116616923094	0.08232722409278925	0.05175515788756007	0.1743018189597603	-7.680052384458112	-24.71834356564288	7.700708855685285	-4.837573112751253	-530.2838620335178	-70.04909455877812	-35.59996149297303	0.6017316756689834	0.4963652437032659	-0.2489262386738649	-1.229498590098956	0.5316583149035931	-0.09507357272630616	1.033791858998774	-0.9024612491126085	-0.9024612491125545	-0.003238991714930273	0.1382145102996675	-0.06429916526464964	0.5181642715462257	2.168972708979406e-09	-6.256126059727813e-07	-8.151030195089598e-08	-1.803090166191233e-07	-8.510237529932245e-08	5.970841341177653e-08	-9.082667197237655e-08
0.51	-0.3693335712044465	-0.0532420272003697	0.7900851868395034	1.007698947434686	-0.4271072151165525	-0.3079181453811936	-0.2535574163327208	0.5959596801323397	0.5959596801323799	-0.1729856275590598	-0.1714531313896728	-0.01296106429099782	-0.08308267983102652	-0.8417247689155102	-0.269939925830524	-0.3804381950768708	2.148095233023497	-0.2123352819889239	0.599020808527856	-0.1186702274614729	1.372260514239791	1.372260514239872	-0.001664798690595648	-0.02681122617907397	0.1548627669716183	-0.1576405733783757	-0.1859961223874179	0.01708898810177103	-0.006310583840986852	-0.1704322547408404	0.08249843881061339	0.05284231408856698	0.1785146224810263	-7.775418348277134	-25.1178921082967	7.700550256698535	-4.95016469161677	-532.8871040790999	-69.85829735312919	-35.06829668276548	0.6879121885088029	0.5146941574830524	-0.2024326788961804	-1.431631951636704	0.5294263566820628	-0.1800253277370046	1.004233257960998	-1.01091032537304	-1.010910325400169	-0.01796670819466224	0.09801761567538074	-0.08523903403093694	0.5066408504489888	6.249621033881502e-09	-6.09020671073063e-07	-1.069302210428039e-07	-1.802432202467313e-07	-7.382514952539877e-08	6.376392322921368e-08	-8.601041249800333e-08
0.52	-0.3777154853208293	-0.05591544104940275	0.7862714556604936	1.029105711813213	-0.429203644087948	-0.3019371478108121	-0.2546939122780759	0.6096297986854142	0.6096297986854143	-0.1730029013976373	-0.1717155846220943	-0.01141694287877798	-0.08463338325556032	-0.8345394523737583	-0.2647147369362436	-0.3822305394811282	2.132958766726076	-0.2069306402572422	0.5970980233018515	-0.1086538604595791	1.361575618832608	1.361575618832508	-0.001787629496317288	-0.02567518903885199	0.1539319448971675	-0.1524920949222078	-0.191646905542079	0.01817039442594681	-0.006080515089334404	-0.1717478925585941	0.08266965352842932	0.05392947028954983	0.1827274260022872	-7.878974920892617	-25.51671464803034	7.70108481145429	-5.05043307765377	-535.614593625936	-69.69416520488549	-34.52344865867348	0.7441628035401667	0.5298077313951928	-0.1560556185235154	-1.588040506782273	0.5563635078928667	-0.1924426444071105	1.003913239516697	-1.127410626949746	-1.127410626949759	-0.001380458604894624	0.1434636306326861	-0.09987467647170548	0.5286423230710723	1.541444857438595e-08	-5.949658251365759e-07	-1.504148244650023e-07	-1.83310660877101e-07	-5.772191332905681e-08	6.663000980717579e-08	-7.836279473860965e-08
0.53	-0.3860221301976553	-0.0585358285368525	0.7824421264250601	1.050352433590054	-0.431245409339361	-0.295977892472868	-0.255731046490722	0.6231876067763747	0.6231876067764098	-0.1730211353010924	-0.1719666139109859	-0.009882974995095523	-0.08613231357798476	-0.8266762053941339	-0.2593400213873446	-0.3835562562447564	2.11609773321865	-0.2014077317673279	0.5946717446659483	-0.09881296119854463	1.349807248845373	1.349807248845461	-0.001856527182058721	-0.02452795920450944	0.1528330827686491	-0.1472906321061253	-0.1971237546975589	0.01912775591507876	-0.005883743461076743	-0.1730991777266648	0.08295157894965811	0.05489917883856692	0.186766917292757	-7.943438522733556	-25.87429675075814	7.698382317539194	-5.14250089664125	-538.2325594829534	-69.46328927849189	-33.96773228965888	0.8244183298038356	0.544677357193427	-0.1089818538793977	-1.778297426216154	0.5525683441482679	-0.279971470194904	0.9681814001187777	-1.228347892672589	-1.22834789264449	-0.00937045369702082	0.1007618789939049	-0.1191862451208977	0.5165118519473231	1.87505629553904e-08	-5.721511235767038e-07	-1.708333434497469e-07	-1.807946534174072e-07	-4.69671183468774e-08	6.887240624142244e-08	-7.306745140000956e-08
0.54	-0.3942467400677545	-0.06110179409070204	0.7786019095922709	1.071421912501125	-0.4332314827409517	-0.2900453501206942	-0.2566709710846127	0.636622371625855	0.6366223716259173	-0.1730400033874212	-0.172206089057706	-0.008360854585514813	-0.08757910655403421	-0.818132451029298	-0.2538303502161995	-0.3844080589522444	2.097510193571492	-0.1957922702931053	0.5917554261495238	-0.08921193670863184	1.336966970535652	1.336966970535927	-0.00191446607332656	-0.02336436060381427	0.1515624500769732	-0.1420646256472214	-0.202600603853063	0.02008511740418853	-0.005686971832773466	-0.1744504628947474	0.08323350437087726	0.05586888738755534	0.1908064085832185	-8.01624357517667	-26.23104746520781	7.69626590321994	-5.220922110621973	-540.9795128673702	-69.25768233609901	-33.40342767983022	0.8802642805824722	0.5567988558443956	-0.06127280729545077	-1.933341734728576	0.5748741047545386	-0.2904506205114109	0.9559382852923879	-1.341792291446974	-1.341792291446978	0.0008113002898441188	0.1467373839031824	-0.1342287891032224	0.5335510516353583	1.563788830886286e-08	-5.396446668590437e-07	-1.657319392270954e-07	-1.721012140282816e-07	-4.212974768675026e-08	7.042476251666475e-08	-7.037462444186197e-08
0.55	-0.4023826544165939	-0.0636120549154645	0.7747555429591542	1.092297136409313	-0.4351609649383153	-0.284144314310686	-0.2575161419360206	0.6499234621772878	0.6499234621773413	-0.1730593542525977	-0.1724337505689099	-0.006852300118211853	-0.08897354271122258	-0.8089426314892677	-0.2482049144726794	-0.3847856456511087	2.077259469798959	-0.1900943101267296	0.5883698822879975	-0.07987660789492076	1.32308153107345	1.323081531073597	-0.001952671725942804	-0.02216709264161495	0.1501201727138842	-0.1368239409391029	-0.2078962006751994	0.0209091378813307	-0.005516649276889302	-0.1757855805399461	0.08353230998923354	0.05675449436549091	0.194663909214505	-8.076910926219478	-26.55516655843931	7.690967142534798	-5.269332316569151	-543.5778789801576	-69.01113765056435	-32.83268292398115	0.954521298490874	0.5679175012421263	-0.01406619641072492	-2.112192425752272	0.5688368444618002	-0.3749355119460614	0.9141740311767611	-1.437347294138414	-1.437347294157608	-0.005788660202626736	0.1063495636683141	-0.1534795803363409	0.5192284475453718	1.293064423890731e-08	-5.05908952734493e-07	-1.605586489703348e-07	-1.629485438358513e-07	-3.707869414575806e-08	7.113846611121451e-08	-6.723351900671135e-08
0.5600000000000001	-0.4104234344684737	-0.06606556106926449	0.7709077875400031	1.11296160213433	-0.4370331515596382	-0.2782795997878963	-0.2582695907289374	0.6630806128299944	0.6630806128300309	-0.1730790176067097	-0.1726494137882474	-0.005359018898625786	-0.09031559176790069	-0.7991055916381319	-0.2424794160237044	-0.3846858161591127	2.055358556936971	-0.1843331550850385	0.5844911687075559	-0.07086752501055812	1.308178990789987	1.308178990790006	-0.00197696386516718	-0.02096470222781637	0.148507800533813	-0.1315872055451712	-0.2131917974973548	0.02173315835844888	-0.005346326720901412	-0.177120698185165	0.08383111560757785	0.05764010134339406	0.1985214098457895	-8.14528712353518	-26.87861677891441	7.686339465863155	-5.308240274712029	-546.2992338701599	-68.78898473365651	-32.25758532830745	1.009708342803604	0.5768113969353598	0.03421043087661309	-2.263379552619299	0.5875130798175967	-0.3890845642944403	0.8906890994227264	-1.545212455699305	-1.545212455699315	0.003594002968238674	0.1477618742230063	-0.1682477524996836	0.5327611887980058	1.070991686083813e-08	-4.70698129721674e-07	-1.552990954726432e-07	-1.532447966794556e-07	-3.177122114772781e-08	7.084578648893324e-08	-6.355447939915712e-08
